# xmcd CD database file
# Copyright (C) 1997 Ti Kan
#
# Track frame offsets:
#  182
#  26927
#  56137
#  79082
#  112217
#  136077
#  154897
#  169005
#  189327
#  204547
#  226887
#  253642
#
# Disc length: 3672 seconds
#
# Revision: 1
# Processed by: cddbd v1.4b41PL1 Copyright (c) Steve Scherf et al.
# Submitted via: CDWizzard Release:4.20
#
DISCID=a30e560c
DTITLE=The Manhattans - NOW
DYEAR=1900
DGENRE=
TTITLE0=A Change is Gonna Come
TTITLE1=Just for Tonight
TTITLE2=Dream
TTITLE3=The Manhattans NOW Medley
TTITLE4=The One Who Adores You
TTITLE5=Save the Best for Last
TTITLE6=Touch the Hem of His Garment
TTITLE7=Hey Lady
TTITLE8=Wonderful
TTITLE9=Having a Party
TTITLE10=You're Gonna Miss Me
TTITLE11=Midnite Lovin'
EXTD=
EXTT0=
EXTT1=
EXTT2=
EXTT3=
EXTT4=
EXTT5=
EXTT6=
EXTT7=
EXTT8=
EXTT9=
EXTT10=
EXTT11=
PLAYORDER=
